<?xml version="1.0" encoding="UTF-8"?>
<!DOCTYPE svg PUBLIC "-//W3C//DTD SVG 1.1//EN" "http://www.w3.org/Graphics/SVG/1.1/DTD/svg11.dtd">
<svg version="1.1" xmlns="http://www.w3.org/2000/svg" xmlns:xlink="http://www.w3.org/1999/xlink" x="0" y="0" width="516.242" height="376" viewBox="0, 0, 516.242, 376">
  <g id="Layer_1" transform="translate(-16.272, 59.12)">
    <g>
      <path d="M50.758,74.57 L254.213,74.57 L254.213,266.595 L50.758,266.595 L50.758,74.57 z" fill="#07C84C"/>
      <path d="M50.758,74.57 L254.213,74.57 L254.213,266.595 L50.758,266.595 L50.758,74.57 z" fill-opacity="0" stroke="#FFFFFF" stroke-width="12"/>
    </g>
    <g>
      <text transform="matrix(1, 0, 0, 1, 274.393, 128.88)">
        <tspan x="-185.984" y="99" font-family="Futura-Bold" font-size="256" fill="#000000">DC</tspan>
      </text>
      <path d="M158.809,185.384 L170.329,185.384 Q183.385,185.384 193.625,181.288 Q203.865,177.192 210.905,170.024 Q217.945,162.856 221.657,153 Q225.369,143.144 225.369,131.368 Q225.369,119.848 221.529,109.864 Q217.689,99.88 210.649,92.712 Q203.609,85.544 193.369,81.448 Q183.129,77.352 170.329,77.352 L158.809,77.352 z M108.633,34.856 L182.873,34.856 Q202.585,34.856 219.865,42.792 Q237.145,50.728 250.073,63.912 Q263.001,77.096 270.425,94.632 Q277.849,112.168 277.849,131.368 Q277.849,150.312 270.553,167.848 Q263.257,185.384 250.329,198.696 Q237.401,212.008 220.121,219.944 Q202.841,227.88 182.873,227.88 L108.633,227.88 z M448.857,99.368 Q431.449,78.12 405.849,78.12 Q394.585,78.12 384.985,82.216 Q375.385,86.312 368.473,93.352 Q361.561,100.392 357.593,110.12 Q353.625,119.848 353.625,131.112 Q353.625,142.632 357.593,152.36 Q361.561,162.088 368.601,169.256 Q375.641,176.424 385.113,180.52 Q394.585,184.616 405.593,184.616 Q429.657,184.616 448.857,164.136 L448.857,223.528 L443.737,225.32 Q432.217,229.416 422.233,231.336 Q412.249,233.256 402.521,233.256 Q382.553,233.256 364.249,225.704 Q345.945,218.152 331.993,204.456 Q318.041,190.76 309.593,171.944 Q301.145,153.128 301.145,130.856 Q301.145,108.584 309.465,90.024 Q317.785,71.464 331.737,58.024 Q345.689,44.584 364.121,37.032 Q382.553,29.48 402.777,29.48 Q414.297,29.48 425.433,31.912 Q436.569,34.344 448.857,39.464 z" fill-opacity="0" stroke="#FFFFFF" stroke-width="10"/>
    </g>
  </g>
</svg>
